<svg xmlns="http://www.w3.org/2000/svg" width="680.773" height="680.772" viewBox="0 0 680.773 680.772"><path d="M290.86 277.837c-12.51-29.382-23.318-54.754-16.217-97.093 12.885-76.72 146.292-163.548 292.294-156.122L568.167.47c-160.793-8.02-302.738 88.12-317.53 176.3-8.273 49.26 4.986 80.38 17.81 110.487 9.662 22.69 19.66 46.143 21.28 79.196 2.56 51.94-155.266 135.11-255.34 175.323l9.13 22.4c28.124-11.29 274.746-112.9 270.53-198.907-1.835-37.34-13.174-63.957-23.186-87.433zM645.7 447.013c-5.036-67.06-40.42-131.655-89.57-164.562-85.97-57.555-92.757-88.216-74.594-119.035 41.808-70.924 149.938-71.962 149.938-71.962V67.288s-122.03.954-170.928 83.93c-36 61.07 19.31 108.807 82.77 151.292 43.197 28.922 74.016 86.345 78.52 146.304 3.986 53.11-9.878 133.382-98.578 214.136l16.448 17.824c95.874-87.312 110.39-175.312 105.994-233.76zm-345.296 168.27l5.676 23.5c.53-.132 13.15-3.176 30.758-11.242l-10.192-21.954c-15.253 6.992-26.134 9.66-26.242 9.697zm80.826-324.766c9.794 17.245 20.095 35.794 28.645 56.155l22.462-9.3c-9.07-21.603-19.744-40.853-29.913-58.726l-21.194 11.87zm-7.946-120.992l-22.22-9.842c-5.036 11.207-7.487 22.426-7.487 34.31 0 11.726 2.44 23.958 7.45 37.448l22.837-8.38c-3.997-10.748-5.94-20.252-5.94-29.068-.002-8.43 1.75-16.424 5.36-24.467zm3.936 402.682l16.594 17.68c17.257-15.965 31.07-34.453 41.083-54.995l-21.906-10.53c-8.697 17.824-20.724 33.92-35.772 47.845zm74.004-170.443l-24.032 3.876c1.184 7.27 2.04 14.66 2.548 21.99.375 5.64.568 11.135.568 16.473 0 7.656-.387 15.24-1.16 22.534l24.214 2.524c.857-8.14 1.292-16.556 1.292-25.058 0-5.857-.205-11.883-.628-18.103-.556-8.08-1.498-16.242-2.802-24.236zM421.612 87.54c-9.3 6.23-17.825 12.487-25.36 18.585l15.35 18.743c6.978-5.628 14.937-11.46 23.632-17.306L421.61 87.54z"/></svg>