<?xml version="1.0" encoding="iso-8859-1"?>
<!-- Generator: Adobe Illustrator 16.0.0, SVG Export Plug-In . SVG Version: 6.00 Build 0)  -->
<!DOCTYPE svg PUBLIC "-//W3C//DTD SVG 1.1//EN" "http://www.w3.org/Graphics/SVG/1.1/DTD/svg11.dtd">
<svg version="1.1" id="Capa_1" xmlns="http://www.w3.org/2000/svg" xmlns:xlink="http://www.w3.org/1999/xlink" x="0px" y="0px"
	 width="680.773px" height="680.772px" viewBox="0 0 680.773 680.772" style="enable-background:new 0 0 680.773 680.772;"
	 xml:space="preserve">
<g>
	<g id="Shape_19_1_">
		<g>
			<path d="M290.861,277.837c-12.511-29.382-23.319-54.754-16.218-97.093c12.885-76.72,146.292-163.548,292.294-156.122
				l1.231-24.152C407.374-7.549,265.429,88.59,250.636,176.771c-8.272,49.259,4.987,80.38,17.812,110.486
				c9.661,22.691,19.66,46.143,21.278,79.196c2.56,51.94-155.265,135.109-255.34,175.323l9.13,22.401
				c28.125-11.291,274.747-112.901,270.532-198.908C312.212,327.929,300.873,301.313,290.861,277.837z M645.698,447.013
				c-5.036-67.06-40.419-131.655-89.569-164.562c-85.971-57.556-92.758-88.217-74.595-119.036
				c41.808-70.924,149.938-71.962,149.938-71.962V67.288c0,0-122.03,0.954-170.928,83.93
				c-35.999,61.07,19.311,108.807,82.771,151.292c43.196,28.922,74.015,86.345,78.52,146.304
				c3.985,53.111-9.879,133.382-98.579,214.136l16.448,17.824C635.578,593.462,650.093,505.462,645.698,447.013z M300.402,615.283
				l5.676,23.501c0.531-0.133,13.151-3.177,30.758-11.243l-10.192-21.955C311.391,612.578,300.51,615.247,300.402,615.283z
				 M381.228,290.517c9.794,17.245,20.095,35.794,28.645,56.155l22.462-9.299c-9.069-21.604-19.744-40.854-29.913-58.727
				L381.228,290.517z M373.282,169.525l-22.22-9.842c-5.036,11.207-7.487,22.426-7.487,34.309c0,11.727,2.439,23.959,7.45,37.449
				l22.837-8.381c-3.997-10.748-5.941-20.252-5.941-29.068C367.92,185.562,369.671,177.568,373.282,169.525z M377.218,572.207
				l16.594,17.68c17.257-15.965,31.071-34.453,41.083-54.995l-21.906-10.53C404.293,542.186,392.266,558.283,377.218,572.207z
				 M451.222,401.764l-24.032,3.876c1.184,7.27,2.041,14.661,2.548,21.991c0.375,5.64,0.568,11.134,0.568,16.472
				c0,7.656-0.387,15.24-1.159,22.534l24.213,2.524c0.857-8.14,1.292-16.557,1.292-25.059c0-5.857-0.205-11.883-0.628-18.103
				C453.468,417.921,452.526,409.758,451.222,401.764z M421.611,87.54c-9.299,6.231-17.824,12.487-25.36,18.585l15.35,18.743
				c6.979-5.628,14.938-11.46,23.633-17.306L421.611,87.54z"/>
		</g>
	</g>
</g>
<g>
</g>
<g>
</g>
<g>
</g>
<g>
</g>
<g>
</g>
<g>
</g>
<g>
</g>
<g>
</g>
<g>
</g>
<g>
</g>
<g>
</g>
<g>
</g>
<g>
</g>
<g>
</g>
<g>
</g>
</svg>
